<svg width="80" height="42" viewBox="0 0 80 42" fill="none" xmlns="http://www.w3.org/2000/svg">
<path d="M26.114 1H22.7373V21.4689H26.114V1Z" fill="white"/>
<path d="M37.9423 14.9626C37.9423 18.0395 35.2257 18.3262 34.4915 18.3262C32.509 18.3262 32.0691 16.4661 32.0691 15.3191V7.5918H28.6924V15.3914C28.6924 17.3239 29.3524 18.8972 30.3807 20.0442C31.3348 20.9743 32.8032 21.4754 34.4199 21.4754C35.5939 21.4754 37.1364 21.1887 37.8706 20.3309V21.4754H41.2472V7.5918H37.8706V14.9626H37.9423Z" fill="white"/>
<path d="M47.9162 2.65234H44.5396V7.59184H42.043V10.8833H44.5396V21.4756H47.9162V10.8833H50.4129V7.59184H47.9162V2.65234Z" fill="white"/>
<path d="M61.0061 17.3228C60.272 17.9661 59.3178 18.3251 58.2895 18.3251C55.9412 18.3251 54.2503 16.6794 54.2503 14.3181C54.2503 11.9567 55.9387 10.3809 58.2895 10.3809C59.3178 10.3809 60.272 10.6676 61.0061 11.3832L61.5202 11.8122L63.7227 9.66534L63.2086 9.16414C61.8144 8.01964 60.1237 7.30404 58.2895 7.30404C54.1046 7.23174 51.0195 10.1664 51.0195 14.3181C51.0195 18.3251 54.1762 21.4045 58.2895 21.4045C60.1978 21.4045 61.9603 20.7612 63.3569 19.5444L63.871 19.0432L61.5228 16.7542L61.0061 17.3228Z" fill="white"/>
<path d="M75.825 8.8021C74.8709 7.872 73.6968 7.3708 72.1543 7.3708C70.9801 7.3708 69.7318 7.6576 68.8493 8.5153V1H65.4727V21.4689H68.8493V13.7391C68.8493 10.6622 71.1977 10.3755 71.9343 10.3755C73.9167 10.3755 73.9167 12.2356 73.9167 13.3825V21.4689H77.2934V13.3102C77.3675 11.52 76.9275 9.8743 75.825 8.8021Z" fill="white"/>
<path d="M58.1296 16.746C59.4674 16.746 60.552 15.6888 60.552 14.3847C60.552 13.0807 59.4674 12.0234 58.1296 12.0234C56.7916 12.0234 55.707 13.0807 55.707 14.3847C55.707 15.6888 56.7916 16.746 58.1296 16.746Z" fill="#FF3D2E"/>
<path d="M18.1115 16.3138C16.8631 17.5306 15.0266 18.2462 13.2666 18.2462C9.4475 18.2462 6.7308 15.3837 6.7308 11.4465C6.7308 7.50927 9.4475 4.64687 13.1924 4.64687C14.9548 4.64687 16.6432 5.36247 18.0373 6.57927L18.5515 7.08047L20.754 4.93357L20.2398 4.43227C18.3315 2.57217 15.8348 1.57227 13.1924 1.57227C7.6108 1.64207 3.5 5.86597 3.5 11.5188C3.5 17.174 7.6108 21.3954 13.1924 21.3954C15.909 21.3954 18.4798 20.3931 20.2398 18.5329L20.754 18.0318L18.5515 15.7428L18.1115 16.3138Z" fill="white"/>
<path d="M11.7903 40.9827C11.6772 40.9827 11.548 40.9504 11.4511 40.8695C11.2572 40.7239 11.1764 40.4973 11.2249 40.2708L11.855 37.4232C11.8711 37.3262 11.8388 37.2453 11.7742 37.1805L9.57681 35.239C9.39909 35.0772 9.33446 34.8344 9.41525 34.6242C9.49603 34.3977 9.67375 34.2359 9.91609 34.2197L12.8083 33.9446C12.9052 33.9284 12.986 33.8799 13.0183 33.799L14.1816 31.1294C14.2785 30.919 14.4886 30.7734 14.7147 30.7734C14.9571 30.7734 15.1671 30.9029 15.2479 31.1294L16.4113 33.799C16.4436 33.8799 16.5244 33.9446 16.6213 33.9446L19.5129 34.2197C19.7559 34.2359 19.95 34.3977 20.0139 34.6242C20.0953 34.8507 20.0302 35.0934 19.8523 35.2552L17.6718 37.1967C17.6067 37.2614 17.5742 37.3585 17.5905 37.4394L18.2204 40.287C18.2693 40.5135 18.1891 40.7562 17.995 40.8857C17.8008 41.0313 17.5584 41.0313 17.3483 40.918L14.844 39.4457C14.7632 39.3971 14.6663 39.3971 14.5855 39.4457L12.0812 40.9018C11.9842 40.9504 11.8873 40.9827 11.7903 40.9827Z" fill="#FF3D2E"/>
<path d="M37.4767 40.9827C37.3639 40.9827 37.2349 40.9504 37.1373 40.8695C36.9443 40.7239 36.863 40.4973 36.9118 40.2708L37.5418 37.4232C37.558 37.3262 37.5255 37.2453 37.4604 37.1805L35.2636 35.239C35.0858 35.0772 35.0207 34.8344 35.102 34.6242C35.1822 34.3977 35.3601 34.2359 35.603 34.2197L38.4949 33.9446C38.5925 33.9284 38.6727 33.8799 38.7053 33.799L39.8687 31.1294C39.9652 30.919 40.1756 30.7734 40.4011 30.7734C40.644 30.7734 40.8544 30.9029 40.9346 31.1294L42.0981 33.799C42.1306 33.8799 42.2108 33.9446 42.3085 33.9446L45.2003 34.2197C45.4421 34.2359 45.6362 34.3977 45.7013 34.6242C45.7815 34.8507 45.7176 35.0934 45.5397 35.2552L43.358 37.1967C43.2941 37.2614 43.2616 37.3585 43.2778 37.4394L43.9078 40.287C43.9566 40.5135 43.8753 40.7562 43.6812 40.8857C43.4871 41.0313 43.2453 41.0313 43.0349 40.918L40.5313 39.4457C40.4499 39.3971 40.3534 39.3971 40.2721 39.4457L37.7684 40.9018C37.6708 40.9504 37.5743 40.9827 37.4767 40.9827Z" fill="#FF3D2E"/>
<path d="M23.8053 40.9827C23.6925 40.9827 23.5623 40.9504 23.4659 40.8695C23.2717 40.7239 23.1915 40.4973 23.2392 40.2708L23.8692 37.4232C23.8855 37.3262 23.8541 37.2453 23.789 37.1805L21.591 35.239C21.4143 35.0772 21.3493 34.8344 21.4295 34.6242C21.5108 34.3977 21.6887 34.2359 21.9304 34.2197L24.8235 33.9446C24.9199 33.9284 25.0001 33.8799 25.0327 33.799L26.1962 31.1294C26.2938 30.919 26.503 30.7734 26.7297 30.7734C26.9714 30.7734 27.1818 30.9029 27.2632 31.1294L28.4255 33.799C28.458 33.8799 28.5394 33.9446 28.6359 33.9446L31.5277 34.2197C31.7707 34.2359 31.9648 34.3977 32.0287 34.6242C32.1101 34.8507 32.045 35.0934 31.8671 35.2552L29.6866 37.1967C29.6215 37.2614 29.589 37.3585 29.6053 37.4394L30.2352 40.287C30.2841 40.5135 30.2027 40.7562 30.0097 40.8857C29.8156 41.0313 29.5727 41.0313 29.3635 40.918L26.8587 39.4457C26.7785 39.3971 26.6808 39.3971 26.6006 39.4457L24.0958 40.9018C23.9994 40.9504 23.9017 40.9827 23.8053 40.9827Z" fill="#FF3D2E"/>
<path d="M50.3162 40.9827C50.2023 40.9827 50.0733 40.9504 49.9768 40.8695C49.7827 40.7239 49.7013 40.4973 49.7501 40.2708L50.3801 37.4232C50.3964 37.3262 50.3638 37.2453 50.2999 37.1805L48.102 35.239C47.9241 35.0772 47.8602 34.8344 47.9404 34.6242C48.0218 34.3977 48.1996 34.2359 48.4414 34.2197L51.3332 33.9446C51.4309 33.9284 51.5111 33.8799 51.5436 33.799L52.7071 31.1294C52.8036 30.919 53.014 30.7734 53.2406 30.7734C53.4824 30.7734 53.6928 30.9029 53.773 31.1294L54.9364 33.799C54.969 33.8799 55.0503 33.9446 55.1468 33.9446L58.0387 34.2197C58.2816 34.2359 58.4757 34.3977 58.5397 34.6242C58.621 34.8507 58.5559 35.0934 58.3781 35.2552L56.1976 37.1967C56.1325 37.2614 56.0999 37.3585 56.1162 37.4394L56.7462 40.287C56.795 40.5135 56.7136 40.7562 56.5207 40.8857C56.3266 41.0313 56.0837 41.0313 55.8744 40.918L53.3696 39.4457C53.2883 39.3971 53.1918 39.3971 53.1116 39.4457L50.6068 40.9018C50.5103 40.9504 50.4127 40.9827 50.3162 40.9827Z" fill="#FF3D2E"/>
<path d="M63.1632 40.9827C63.0505 40.9827 62.9203 40.9504 62.8238 40.8695C62.6297 40.7239 62.5495 40.4973 62.5971 40.2708L63.2283 37.4232C63.2434 37.3262 63.212 37.2453 63.1469 37.1805L60.9501 35.239C60.7723 35.0772 60.7072 34.8344 60.7886 34.6242C60.8688 34.3977 61.0466 34.2359 61.2884 34.2197L64.1814 33.9446C64.2779 33.9284 64.3592 33.8799 64.3906 33.799L65.5541 31.1294C65.6517 30.919 65.8609 30.7734 66.0876 30.7734C66.3294 30.7734 66.5397 30.9029 66.6211 31.1294L67.7846 33.799C67.816 33.8799 67.8973 33.9446 67.9938 33.9446L70.8857 34.2197C71.1286 34.2359 71.3227 34.3977 71.3867 34.6242C71.468 34.8507 71.4029 35.0934 71.2251 35.2552L69.0446 37.1967C68.9795 37.2614 68.9469 37.3585 68.9632 37.4394L69.5932 40.287C69.642 40.5135 69.5618 40.7562 69.3677 40.8857C69.1736 41.0313 68.9307 41.0313 68.7214 40.918L66.2166 39.4457C66.1364 39.3971 66.0388 39.3971 65.9586 39.4457L63.4538 40.9018C63.3573 40.9504 63.2597 40.9827 63.1632 40.9827Z" fill="#FF3D2E"/>
</svg>
