<svg width="1294" height="294" viewBox="0 0 1294 294" fill="none" xmlns="http://www.w3.org/2000/svg">
<g clip-path="url(#clip0_744_2994)">
<path d="M-2.85199 21.8291H44.5835L165.894 206.517H166.672V21.8291H217.606V294H170.171L48.8605 109.701H48.0828V294H-2.85199V21.8291ZM268.256 21.8291H464.996V66.5429H321.135V135.363H453.721V179.299H321.135V249.286H464.996V294H268.256V21.8291ZM575.593 153.638L484.61 21.8291H544.099L605.532 111.257L666.965 21.8291H726.454L635.471 155.193L730.342 294H670.853L605.532 197.963L540.211 294H480.722L575.593 153.638ZM819.514 66.5429H738.252V21.8291H953.655V66.5429H872.393V294H819.514V66.5429ZM986.699 21.8291H1039.58V294H986.699V21.8291ZM1154.03 66.5429H1072.77V21.8291H1288.17V66.5429H1206.91V294H1154.03V66.5429Z" fill="url(#paint0_linear_744_2994)"/>
</g>
<defs>
<linearGradient id="paint0_linear_744_2994" x1="633.375" y1="24.3852" x2="633.375" y2="418.788" gradientUnits="userSpaceOnUse">
<stop stop-color="#FFCF04"/>
<stop offset="0.732852" stop-opacity="0"/>
</linearGradient>
<clipPath id="clip0_744_2994">
<rect width="1294" height="294" fill="white"/>
</clipPath>
</defs>
</svg>
