<svg width="625" height="92" viewBox="0 0 625 92" fill="none" xmlns="http://www.w3.org/2000/svg">
<g clip-path="url(#clip0_551_30)">
<path d="M0.0065918 110.323V27.0784H30.4389C35.8492 27.0784 40.9014 28.109 45.5955 30.1703C50.2896 32.2316 54.3872 35.1253 57.8877 38.8515C61.4679 42.4982 64.2527 46.8589 66.2421 51.9329C68.3104 57.0068 69.3446 62.5961 69.3446 68.7005C69.3446 74.7257 68.3104 80.3149 66.2421 85.4682C64.2527 90.5422 61.4679 94.9423 57.8877 98.6684C54.3872 102.316 50.2896 105.17 45.5955 107.231C40.9014 109.292 35.8492 110.323 30.4389 110.323H0.0065918ZM5.97373 106.399L4.30292 104.377H29.8423C34.3773 104.377 38.6339 103.505 42.6119 101.761C46.6695 100.016 50.2101 97.5586 53.2334 94.3877C56.2568 91.1368 58.6436 87.3713 60.3942 83.0899C62.1442 78.7298 63.0198 73.9332 63.0198 68.7005C63.0198 63.4679 62.1442 58.7113 60.3942 54.4298C58.6436 50.0698 56.2568 46.3036 53.2334 43.1327C50.2101 39.8822 46.6695 37.3848 42.6119 35.6406C38.6339 33.8965 34.3773 33.0244 29.8423 33.0244H3.9449L5.97373 31.2406V106.399ZM118.039 111.878C109.925 111.878 102.694 110.116 96.3467 106.59C90.1043 103.066 85.2144 98.1414 81.6772 91.8169C78.1393 85.4931 76.3706 78.236 76.3706 70.0456C76.3706 63.7211 77.3591 58.0194 79.3361 52.9392C81.3131 47.7556 84.0702 43.2452 87.6074 39.4096C91.2485 35.5736 95.5666 32.6188 100.56 30.5454C105.555 28.3682 110.965 27.2796 116.791 27.2796C122.306 27.2796 127.299 28.2645 131.773 30.2343C136.351 32.2041 140.253 34.9515 143.478 38.4764C146.807 41.8981 149.304 45.9925 150.969 50.7616C152.634 55.5307 153.362 60.7668 153.154 66.4684L152.998 71.9114H85.1106L83.3939 62.1146H144.102L141.293 64.7578V61.0254C141.085 57.2931 139.992 53.7166 138.015 50.2954C136.039 46.7706 133.23 43.9191 129.588 41.7422C126.051 39.565 121.785 38.4764 116.791 38.4764C110.965 38.4764 105.919 39.6687 101.653 42.0533C97.3871 44.3343 94.1101 47.7556 91.821 52.3171C89.5318 56.8785 88.3876 62.5292 88.3876 69.2675C88.3876 75.6955 89.6363 81.2944 92.1332 86.0628C94.63 90.7284 98.1679 94.3573 102.746 96.9488C107.427 99.541 113.046 100.837 119.6 100.837C123.45 100.837 127.247 100.215 130.993 98.9705C134.842 97.6227 139.056 95.0312 143.634 91.1947L149.72 99.5927C147.328 101.977 144.466 104.102 141.137 105.969C137.808 107.731 134.166 109.183 130.213 110.323C126.259 111.36 122.201 111.878 118.039 111.878ZM191.875 110.323L157.229 28.6792H174.552L199.522 89.7952L196.557 91.1947L223.244 28.6792H239.787L203.424 110.323H191.875ZM252.089 110.323V28.3682H271.285V110.323H252.089ZM328.803 111.722C320.688 111.722 313.353 109.908 306.798 106.279C300.244 102.548 295.094 97.3634 291.348 90.7284C287.603 83.9894 285.729 76.2142 285.729 67.4017C285.729 58.6933 287.654 50.9693 291.504 44.2302C295.353 37.4916 300.608 32.3078 307.266 28.6792C313.925 25.0506 321.364 23.2363 329.584 23.2363C337.803 23.2363 345.242 25.0506 351.901 28.6792C358.559 32.3078 363.813 37.4916 367.663 44.2302C371.513 50.9693 373.437 58.6933 373.437 67.4017C373.437 76.1101 371.461 83.8342 367.507 90.5732C363.553 97.3116 358.143 102.548 351.276 106.279C344.513 109.908 337.022 111.722 328.803 111.722ZM328.803 96.3266C333.381 96.3266 337.647 95.2382 341.6 93.0612C345.658 90.8836 348.935 87.6183 351.432 83.2637C353.93 78.9099 355.178 73.6221 355.178 67.4017C355.178 61.1813 353.982 55.946 351.589 51.6949C349.196 47.3404 346.022 44.075 342.068 41.8981C338.115 39.7206 333.849 38.632 329.271 38.632C324.694 38.632 320.428 39.7206 316.474 41.8981C312.625 44.075 309.556 47.3404 307.266 51.6949C304.977 55.946 303.833 61.1813 303.833 67.4017C303.833 76.6288 306.174 83.7824 310.856 88.8626C315.642 93.8386 321.624 96.3266 328.803 96.3266ZM386.426 110.323V27.0784H398.002L449.081 95.2202L447.171 96.2901C446.853 94.3084 446.574 92.168 446.335 89.8683C446.097 87.4899 445.858 84.993 445.619 82.3767C445.46 79.681 445.301 76.8668 445.142 73.9332C445.062 70.9202 444.983 67.7887 444.904 64.5385C444.824 61.2883 444.784 57.9187 444.784 54.4298V27.0784H457.673V110.323H445.858L395.615 44.6785L396.927 43.0134C397.325 47.8501 397.644 51.9722 397.883 55.3817C398.2 58.7113 398.439 61.5655 398.598 63.9439C398.837 66.2429 398.996 68.146 399.076 69.6517C399.156 71.0789 399.195 72.2681 399.195 73.2199C399.275 74.1711 399.315 75.0037 399.315 75.7169V110.323H386.426ZM512.062 111.878C503.947 111.878 496.716 110.116 490.369 106.59C484.127 103.066 479.236 98.1414 475.699 91.8169C472.162 85.4931 470.393 78.236 470.393 70.0456C470.393 63.7211 471.382 58.0194 473.358 52.9392C475.335 47.7556 478.092 43.2452 481.629 39.4096C485.271 35.5736 489.589 32.6188 494.583 30.5454C499.577 28.3682 504.987 27.2796 510.813 27.2796C516.328 27.2796 521.322 28.2645 525.796 30.2343C530.373 32.2041 534.275 34.9515 537.5 38.4764C540.83 41.8981 543.327 45.9925 544.992 50.7616C546.656 55.5307 547.385 60.7668 547.176 66.4684L547.021 71.9114H479.133L477.416 62.1146H538.125L535.316 64.7578V61.0254C535.107 57.2931 534.015 53.7166 532.038 50.2954C530.061 46.7706 527.252 43.9191 523.611 41.7422C520.073 39.565 515.808 38.4764 510.813 38.4764C504.987 38.4764 499.941 39.6687 495.675 42.0533C491.41 44.3343 488.132 47.7556 485.844 52.3171C483.554 56.8785 482.41 62.5292 482.41 69.2675C482.41 75.6955 483.658 81.2944 486.156 86.0628C488.653 90.7284 492.19 94.3573 496.768 96.9488C501.45 99.541 507.068 100.837 513.622 100.837C517.472 100.837 521.27 100.215 525.016 98.9705C528.865 97.6227 533.079 95.0312 537.656 91.1947L543.743 99.5927C541.35 101.977 538.489 104.102 535.159 105.969C531.83 107.731 528.189 109.183 524.235 110.323C520.282 111.36 516.224 111.878 512.062 111.878ZM615.706 110.323L585.741 72.3777L585.273 71.7562L551.876 29.4568H561.708L591.048 66.7795L591.516 67.4017L625.538 110.323H615.706ZM550.627 110.323L584.805 66.9354L589.487 72.5336L560.147 110.323H550.627ZM592.14 70.3567L587.458 64.7578L614.769 29.4568H624.289L592.14 70.3567Z" fill="url(#paint0_linear_551_30)"/>
<path d="M270.234 22.6783H271.283V4.38281H252.053C252.053 14.5861 260.27 22.6783 270.234 22.6783Z" fill="#B5E662"/>
<path d="M456.972 21.7698H457.673V8.96289H444.821C444.821 16.1052 450.312 21.7698 456.972 21.7698Z" fill="#B5E662"/>
</g>
<defs>
<linearGradient id="paint0_linear_551_30" x1="312.772" y1="89.0399" x2="312.772" y2="23.2363" gradientUnits="userSpaceOnUse">
<stop stop-color="#00454A"/>
<stop offset="1" stop-color="#C7F664"/>
</linearGradient>
<clipPath id="clip0_551_30">
<rect width="625" height="92" fill="white"/>
</clipPath>
</defs>
</svg>
