<svg width="1294" height="294" viewBox="0 0 1294 294" fill="none" xmlns="http://www.w3.org/2000/svg">
<g clip-path="url(#clip0_744_2994)">
<path d="M2.50739 21.8291H49.9429L171.253 206.517H172.031V21.8291H222.966V294H175.53L54.2199 109.701H53.4422V294H2.50739V21.8291ZM273.615 21.8291H470.356V66.5429H326.494V135.363H459.08V179.299H326.494V249.286H470.356V294H273.615V21.8291ZM580.952 153.638L489.97 21.8291H549.458L610.891 111.257L672.324 21.8291H731.813L640.83 155.193L735.701 294H676.212L610.891 197.963L545.57 294H486.081L580.952 153.638ZM824.873 66.5429H743.611V21.8291H959.015V66.5429H877.752V294H824.873V66.5429ZM992.058 21.8291H1044.94V294H992.058V21.8291ZM1159.39 66.5429H1078.13V21.8291H1293.53V66.5429H1212.27V294H1159.39V66.5429Z" fill="url(#paint0_linear_744_2994)"/>
</g>
<defs>
<linearGradient id="paint0_linear_744_2994" x1="638.734" y1="-24" x2="638.734" y2="294" gradientUnits="userSpaceOnUse">
<stop offset="0.390183" stop-color="white"/>
<stop offset="1" stop-color="#FFCF04" stop-opacity="0"/>
</linearGradient>
<clipPath id="clip0_744_2994">
<rect width="1294" height="294" fill="white"/>
</clipPath>
</defs>
</svg>
