<?xml version="1.0" encoding="utf-8"?>
<!-- Generator: Adobe Illustrator 24.0.0, SVG Export Plug-In . SVG Version: 6.00 Build 0)  -->
<svg version="1.1" id="Layer_1" xmlns="http://www.w3.org/2000/svg" xmlns:xlink="http://www.w3.org/1999/xlink" x="0px" y="0px"
	 viewBox="0 0 111.5 46" style="enable-background:new 0 0 111.5 46;" xml:space="preserve">
<style type="text/css">
	.st0{fill:#FFCF01;}
	.st1{fill:#FFCB07;}
	.st2{fill:none;}
	.st3{fill:#FFFFFF;}
	.st4{fill-rule:evenodd;clip-rule:evenodd;fill:#FFFFFF;}
</style>
<g>
	<g>
		<path class="st0" d="M30.6,18.6c2.9,0,5.7,0,8.6,0c0.7,0,0.9,0.2,0.9,0.9c-0.1,0.9,0,1.7,0,2.6c0,0.5-0.1,0.7-0.7,0.7
			c-5.9,0-11.8,0-17.7,0c-0.5,0-0.7-0.2-0.7-0.7c0-0.9,0-1.8,0-2.8c0-0.6,0.2-0.8,0.8-0.7C24.8,18.6,27.7,18.6,30.6,18.6
			C30.6,18.6,30.6,18.6,30.6,18.6z"/>
		<path class="st0" d="M29.7,31.4c-2.6,0-5.3,0-7.9,0c-0.5,0-0.8-0.1-0.7-0.7c0-1,0-1.9,0-2.9c0-0.5,0.2-0.6,0.6-0.6
			c5.3,0,10.7,0,16,0c0.5,0,0.7,0.1,0.7,0.6c0,1,0,2,0,3c0,0.5-0.2,0.6-0.7,0.6C35,31.4,32.4,31.4,29.7,31.4
			C29.7,31.4,29.7,31.4,29.7,31.4z"/>
		<g>
			<g>
				<rect x="33.1" y="0.7" class="st1" width="19.2" height="0.2"/>
			</g>
			<g>
				<circle class="st1" cx="52.3" cy="0.8" r="0.7"/>
				<path class="st1" d="M33.1,1.5c0.4,0,0.7-0.3,0.7-0.7c0-0.4-0.3-0.7-0.7-0.7c-0.4,0-0.7,0.3-0.7,0.7C32.3,1.2,32.7,1.5,33.1,1.5
					z"/>
			</g>
			<g>
				<path class="st1" d="M42.7,0.5c5.1,0,9.2,4.1,9.2,9.2h-0.5c0-4.8-3.9-8.6-8.6-8.6s-8.6,3.9-8.6,8.6h-0.5
					C33.5,4.6,37.6,0.5,42.7,0.5z"/>
			</g>
			<g>
				<path class="st1" d="M33.1,9h1.4c0,0,0.1,0,0.1,0.1v1.2c0,0,0,0.1-0.1,0.1h-1.4c0,0-0.1,0-0.1-0.1L33.1,9C33,9,33.1,9,33.1,9z"
					/>
				<path class="st1" d="M50.9,9h1.4c0,0,0.1,0,0.1,0.1v1.2c0,0,0,0.1-0.1,0.1h-1.4c0,0-0.1,0-0.1-0.1L50.9,9C50.9,9,50.9,9,50.9,9z
					"/>
			</g>
			<path class="st1" d="M42,0l1.4,0c0,0,0.1,0,0.1,0.1v1.2c0,0,0,0.1-0.1,0.1H42c0,0-0.1,0-0.1-0.1L42,0C42,0,42,0,42,0z"/>
		</g>
		<path class="st2" d="M11.9,39.8C9.8,36.2,7.7,32.6,5.5,29c-0.1-0.1-0.1-0.2-0.2-0.3c-0.1,0-0.1,0-0.2,0c0,0.3,0,0.5,0,0.8
			c0,3.4,0,6.8,0,10.3c0,0.2,0,0.4-0.1,0.5h7.2C12.2,40.2,12,40,11.9,39.8z"/>
		<path class="st3" d="M5.2,39.8c0-3.4,0-6.8,0-10.3c0-0.3,0-0.5,0-0.8c0.1,0,0.1,0,0.2,0c0.1,0.1,0.2,0.2,0.2,0.3
			c2.1,3.6,4.3,7.2,6.4,10.8c0.1,0.2,0.2,0.3,0.4,0.5h5.1c0-0.1,0.1-0.2,0.1-0.3c0-6.9,0-13.9,0-20.8c0-0.5-0.2-0.6-0.7-0.6
			c-1.2,0-2.5,0-3.7,0c-0.6,0-0.7,0.2-0.7,0.7c0,3.6,0,7.1,0,10.7c0,0.3,0.1,0.6-0.1,0.9c-0.6-0.8-1-1.6-1.4-2.4
			C9,25.4,7.2,22.2,5.4,19c-0.2-0.3-0.4-0.5-0.8-0.5c-1.3,0-2.6,0-4,0c-0.5,0-0.6,0.1-0.6,0.6C0,26.1,0,33.1,0,40c0,0.1,0,0.2,0,0.3
			h5C5.1,40.2,5.2,40,5.2,39.8z"/>
		<path class="st3" d="M74,39.8c0-2.7,0-5.4,0-8.1c0-2.7,0-5.5,0-8.2c0-0.5,0.1-0.7,0.7-0.7c1.3,0,2.6,0,3.9,0
			c0.4,0,0.6-0.1,0.5-0.5c0-1,0-2.1,0-3.1c0-0.5-0.2-0.6-0.6-0.6c-4.7,0-9.3,0-14,0c-0.5,0-0.7,0.1-0.6,0.6c0,1,0,2,0,3
			c0,0.4,0.1,0.6,0.6,0.6c1.2,0,2.4,0,3.6,0c0.8,0,0.9,0.2,0.9,0.9c0,5.4,0,10.7,0,16.1c0,0.2,0,0.4,0.1,0.5h5
			C74,40.2,74,40,74,39.8z"/>
		<path class="st0" d="M110.8,18.6c-4.7,0-9.3,0-14,0c-0.5,0-0.7,0.1-0.6,0.6c0,1,0,2,0,3c0,0.4,0.1,0.6,0.6,0.6c1.2,0,2.4,0,3.6,0
			c0.8,0,0.9,0.2,0.9,0.9c0,5.4,0,10.7,0,16.1c0,0.2,0,0.4,0.1,0.5h5c0.1-0.1,0.1-0.3,0.1-0.5c0-2.7,0-5.4,0-8.1c0-2.7,0-5.5,0-8.2
			c0-0.5,0.1-0.7,0.7-0.7c1.3,0,2.6,0,3.9,0c0.4,0,0.6-0.1,0.5-0.5c0-1,0-2.1,0-3.1C111.5,18.6,111.3,18.6,110.8,18.6z"/>
		<path class="st0" d="M40.1,39.9c0-0.9,0-1.9,0-2.8c0-0.5-0.1-0.7-0.7-0.7c-5.9,0-11.8,0-17.6,0c-0.6,0-0.7,0.2-0.7,0.7
			c0,0.9,0.1,1.8,0,2.7c0,0.3,0,0.4,0.1,0.6h18.9C40.1,40.2,40.1,40.1,40.1,39.9z"/>
		<path class="st3" d="M63.1,40c-1.1-1.9-2.1-3.8-3.2-5.6c-0.8-1.4-1.6-2.8-2.5-4.4c-1,1.8-1.9,3.4-2.8,5c-0.1,0.2-0.1,0.4,0.1,0.6
			c0.9,1.6,1.8,3.2,2.7,4.7h5.8C63.2,40.2,63.1,40.1,63.1,40z"/>
		<path class="st3" d="M57.4,27.6c0.7-1.3,1.3-2.5,2-3.6c1-1.6,1.8-3.2,2.8-4.8c0.2-0.4,0.3-0.6-0.3-0.6c-1.5,0-3.1,0-4.6,0
			c-0.4,0-0.6,0.1-0.8,0.5c-0.5,1-1.1,2-1.6,3c-0.1,0.2-0.2,0.4-0.1,0.6C55.6,24.3,56.5,25.8,57.4,27.6z"/>
		<rect x="89.2" y="18.6" class="st3" width="5.1" height="21.7"/>
		<g>
			<path class="st0" d="M56.5,28.3c-2.6-4.6-5.1-9.2-7.6-13.7c-0.2-0.4-0.5-0.5-0.9-0.5c-0.7,0-1.5,0-2.3,0c0.4,0.2,0.6,0.5,0.6,1
				c0,0.6-0.5,1.1-1.1,1.1c-0.6,0-1.1-0.5-1.1-1.1c0-0.4-0.3-0.5,0-0.7c-0.1,0-0.1,0-0.2,0c0,0,0-0.2,0-0.2c-1.1,0-1.8,0-2.9,0
				c-0.9,0-0.9,0-0.5,0.7c2.5,4.4,4.9,8.8,7.4,13.2c0.4,0.7,0.4,1.1,0,1.8c-2.8,4.9-5.5,9.9-8.3,14.8c-0.3,0.6-0.2,0.6,0.4,0.6
				c2.3,0,4.5,0,6.8,0c0.5,0,0.7-0.2,0.9-0.5c2.9-5.1,5.7-10.3,8.6-15.4C56.7,28.9,56.7,28.7,56.5,28.3z"/>
		</g>
		<path class="st4" d="M44.4,14.4L39.6,5c0.4,4.3,0.2,8.5-0.5,12.6c2.5,0.5,4.1,1.8,5.2,3.7l3.3-1.7l3.2-1.6c-0.9-2-1-4.1,0.1-6.4
			c-3.7-1.9-7.2-4.2-10.4-7l4.8,9.4c0.4,0,0.7,0.2,0.9,0.5c0.2,0.5,0.1,1.1-0.4,1.3c-0.5,0.2-1.1,0.1-1.3-0.4
			C44.2,15.1,44.2,14.7,44.4,14.4L44.4,14.4z"/>
	</g>
	<g>
		<path class="st3" d="M52.7,42.5h1.1c0.2,0,0.4,0,0.5,0c0.1,0,0.2,0.1,0.3,0.1s0.2,0.1,0.2,0.2c0.1,0.1,0.1,0.2,0.1,0.3
			c0,0.1,0,0.2-0.1,0.3c-0.1,0.1-0.2,0.2-0.3,0.2c0.2,0,0.3,0.1,0.4,0.2c0.1,0.1,0.1,0.3,0.1,0.4c0,0.1,0,0.2-0.1,0.4
			c-0.1,0.1-0.1,0.2-0.2,0.3c-0.1,0.1-0.2,0.1-0.4,0.1c-0.1,0-0.3,0-0.7,0h-0.9V42.5z M53.3,42.9v0.6h0.4c0.2,0,0.3,0,0.4,0
			c0.1,0,0.2,0,0.2-0.1c0.1-0.1,0.1-0.1,0.1-0.2c0-0.1,0-0.2-0.1-0.2c0-0.1-0.1-0.1-0.2-0.1c-0.1,0-0.2,0-0.5,0H53.3z M53.3,44v0.7
			h0.5c0.2,0,0.3,0,0.4,0c0.1,0,0.1-0.1,0.2-0.1s0.1-0.1,0.1-0.2c0-0.1,0-0.1-0.1-0.2S54.3,44,54.2,44c-0.1,0-0.2,0-0.5,0H53.3z"/>
		<path class="st3" d="M55.9,45.2h-0.5v-2h0.5v0.3c0.1-0.1,0.2-0.2,0.2-0.3c0.1,0,0.1-0.1,0.2-0.1c0.1,0,0.2,0,0.3,0.1l-0.2,0.5
			c-0.1-0.1-0.2-0.1-0.2-0.1c-0.1,0-0.1,0-0.2,0.1c-0.1,0-0.1,0.1-0.1,0.2c0,0.1,0,0.3,0,0.7V45.2z"/>
		<path class="st3" d="M56.9,42.9v-0.5h0.5v0.5H56.9z M56.9,45.2v-2h0.5v2H56.9z"/>
		<path class="st3" d="M59.7,45.2h-0.5v-0.3c-0.1,0.1-0.2,0.2-0.3,0.2c-0.1,0.1-0.2,0.1-0.3,0.1c-0.2,0-0.4-0.1-0.6-0.3
			c-0.2-0.2-0.2-0.4-0.2-0.8c0-0.3,0.1-0.6,0.2-0.8c0.2-0.2,0.4-0.3,0.6-0.3c0.2,0,0.4,0.1,0.6,0.3v-1h0.5V45.2z M58.4,44.1
			c0,0.2,0,0.4,0.1,0.5c0.1,0.1,0.2,0.2,0.3,0.2c0.1,0,0.2-0.1,0.3-0.2c0.1-0.1,0.1-0.3,0.1-0.5c0-0.2,0-0.4-0.1-0.5
			c-0.1-0.1-0.2-0.1-0.3-0.1c-0.1,0-0.2,0-0.3,0.1C58.4,43.8,58.4,43.9,58.4,44.1z"/>
		<path class="st3" d="M60.2,45.3l0.6,0.1c0,0.1,0,0.1,0.1,0.1c0,0,0.1,0.1,0.2,0.1c0.1,0,0.2,0,0.3-0.1c0,0,0.1-0.1,0.1-0.1
			c0,0,0-0.1,0-0.2v-0.3c-0.2,0.2-0.3,0.3-0.6,0.3c-0.3,0-0.5-0.1-0.6-0.3c-0.1-0.2-0.2-0.4-0.2-0.7c0-0.3,0.1-0.6,0.2-0.8
			c0.2-0.2,0.4-0.3,0.6-0.3c0.2,0,0.4,0.1,0.6,0.3v-0.3H62V45c0,0.2,0,0.4-0.1,0.5c0,0.1-0.1,0.2-0.2,0.3c-0.1,0.1-0.2,0.1-0.3,0.2
			c-0.1,0-0.3,0.1-0.4,0.1c-0.3,0-0.6-0.1-0.7-0.2C60.3,45.7,60.2,45.5,60.2,45.3C60.2,45.3,60.2,45.3,60.2,45.3z M60.7,44.1
			c0,0.2,0,0.4,0.1,0.5c0.1,0.1,0.2,0.1,0.3,0.1c0.1,0,0.2,0,0.3-0.1c0.1-0.1,0.1-0.2,0.1-0.4c0-0.2,0-0.4-0.1-0.5
			c-0.1-0.1-0.2-0.1-0.3-0.1c-0.1,0-0.2,0-0.3,0.1C60.7,43.8,60.7,43.9,60.7,44.1z"/>
		<path class="st3" d="M63.7,44.5l0.5,0.1c-0.1,0.2-0.2,0.3-0.3,0.4c-0.1,0.1-0.3,0.1-0.5,0.1c-0.3,0-0.6-0.1-0.8-0.3
			c-0.1-0.2-0.2-0.4-0.2-0.7c0-0.3,0.1-0.6,0.3-0.8c0.2-0.2,0.4-0.3,0.6-0.3c0.3,0,0.5,0.1,0.7,0.3c0.2,0.2,0.2,0.5,0.2,0.9h-1.3
			c0,0.2,0,0.3,0.1,0.4s0.2,0.1,0.3,0.1c0.1,0,0.1,0,0.2-0.1C63.6,44.7,63.7,44.6,63.7,44.5z M63.7,44c0-0.1,0-0.3-0.1-0.3
			c-0.1-0.1-0.2-0.1-0.3-0.1c-0.1,0-0.2,0-0.3,0.1c-0.1,0.1-0.1,0.2-0.1,0.3H63.7z"/>
		<path class="st3" d="M66.3,45.2v-2.2h-0.8v-0.5h2.1v0.5h-0.8v2.2H66.3z"/>
		<path class="st3" d="M67.6,44.2c0-0.2,0-0.3,0.1-0.5c0.1-0.2,0.2-0.3,0.4-0.4c0.2-0.1,0.3-0.1,0.5-0.1c0.3,0,0.5,0.1,0.7,0.3
			c0.2,0.2,0.3,0.4,0.3,0.7c0,0.3-0.1,0.5-0.3,0.7c-0.2,0.2-0.4,0.3-0.7,0.3c-0.2,0-0.3,0-0.5-0.1c-0.2-0.1-0.3-0.2-0.4-0.4
			C67.6,44.6,67.6,44.4,67.6,44.2z M68.1,44.2c0,0.2,0,0.3,0.1,0.4c0.1,0.1,0.2,0.2,0.3,0.2c0.1,0,0.2-0.1,0.3-0.2
			c0.1-0.1,0.1-0.3,0.1-0.4c0-0.2,0-0.3-0.1-0.4c-0.1-0.1-0.2-0.2-0.3-0.2c-0.1,0-0.2,0.1-0.3,0.2C68.2,43.8,68.1,44,68.1,44.2z"/>
		<path class="st3" d="M71.7,45.2V44l-1-1.6h0.6l0.6,1.1l0.6-1.1h0.6l-1,1.6v1.1H71.7z"/>
		<path class="st3" d="M73.1,44.2c0-0.2,0-0.3,0.1-0.5c0.1-0.2,0.2-0.3,0.4-0.4c0.2-0.1,0.3-0.1,0.5-0.1c0.3,0,0.5,0.1,0.7,0.3
			c0.2,0.2,0.3,0.4,0.3,0.7c0,0.3-0.1,0.5-0.3,0.7c-0.2,0.2-0.4,0.3-0.7,0.3c-0.2,0-0.3,0-0.5-0.1c-0.2-0.1-0.3-0.2-0.4-0.4
			C73.2,44.6,73.1,44.4,73.1,44.2z M73.6,44.2c0,0.2,0,0.3,0.1,0.4c0.1,0.1,0.2,0.2,0.3,0.2c0.1,0,0.2-0.1,0.3-0.2
			c0.1-0.1,0.1-0.3,0.1-0.4c0-0.2,0-0.3-0.1-0.4c-0.1-0.1-0.2-0.2-0.3-0.2c-0.1,0-0.2,0.1-0.3,0.2C73.7,43.8,73.6,44,73.6,44.2z"/>
		<path class="st3" d="M76.8,45.2v-0.3c-0.1,0.1-0.2,0.2-0.3,0.2c-0.1,0.1-0.2,0.1-0.4,0.1c-0.1,0-0.2,0-0.4-0.1
			c-0.1-0.1-0.2-0.1-0.2-0.2c0-0.1-0.1-0.2-0.1-0.4v-1.2H76v0.9c0,0.3,0,0.4,0,0.5c0,0.1,0.1,0.1,0.1,0.1c0.1,0,0.1,0.1,0.2,0.1
			c0.1,0,0.2,0,0.2-0.1c0.1,0,0.1-0.1,0.1-0.2c0-0.1,0-0.2,0-0.5v-0.8h0.5v2H76.8z"/>
		<path class="st3" d="M78.3,45.2h-0.5v-2h0.5v0.3c0.1-0.1,0.2-0.2,0.2-0.3c0.1,0,0.1-0.1,0.2-0.1c0.1,0,0.2,0,0.3,0.1l-0.2,0.5
			c-0.1-0.1-0.2-0.1-0.2-0.1c-0.1,0-0.1,0-0.2,0.1c-0.1,0-0.1,0.1-0.1,0.2c0,0.1,0,0.3,0,0.7V45.2z"/>
		<path class="st3" d="M80.4,42.5h1c0.2,0,0.4,0,0.5,0.1c0.2,0,0.3,0.1,0.4,0.2c0.1,0.1,0.2,0.3,0.3,0.4c0.1,0.2,0.1,0.4,0.1,0.6
			c0,0.2,0,0.4-0.1,0.6c-0.1,0.2-0.2,0.4-0.3,0.5C82.2,45,82,45,81.9,45.1c-0.1,0-0.3,0.1-0.5,0.1h-1V42.5z M80.9,42.9v1.8h0.4
			c0.2,0,0.3,0,0.3,0c0.1,0,0.2-0.1,0.2-0.1c0.1-0.1,0.1-0.1,0.1-0.3s0.1-0.3,0.1-0.5c0-0.2,0-0.4-0.1-0.5s-0.1-0.2-0.2-0.3
			c-0.1-0.1-0.1-0.1-0.3-0.1c-0.1,0-0.2,0-0.4,0H80.9z"/>
		<path class="st3" d="M83.1,42.9v-0.5h0.5v0.5H83.1z M83.1,45.2v-2h0.5v2H83.1z"/>
		<path class="st3" d="M84.1,45.3l0.6,0.1c0,0.1,0,0.1,0.1,0.1c0,0,0.1,0.1,0.2,0.1c0.1,0,0.2,0,0.3-0.1c0,0,0.1-0.1,0.1-0.1
			c0,0,0-0.1,0-0.2v-0.3c-0.2,0.2-0.3,0.3-0.6,0.3c-0.3,0-0.5-0.1-0.6-0.3c-0.1-0.2-0.2-0.4-0.2-0.7c0-0.3,0.1-0.6,0.2-0.8
			c0.2-0.2,0.4-0.3,0.6-0.3c0.2,0,0.4,0.1,0.6,0.3v-0.3h0.5V45c0,0.2,0,0.4-0.1,0.5c0,0.1-0.1,0.2-0.2,0.3c-0.1,0.1-0.2,0.1-0.3,0.2
			c-0.1,0-0.3,0.1-0.4,0.1c-0.3,0-0.6-0.1-0.7-0.2C84.1,45.7,84.1,45.5,84.1,45.3C84.1,45.3,84.1,45.3,84.1,45.3z M84.5,44.1
			c0,0.2,0,0.4,0.1,0.5c0.1,0.1,0.2,0.1,0.3,0.1c0.1,0,0.2,0,0.3-0.1c0.1-0.1,0.1-0.2,0.1-0.4c0-0.2,0-0.4-0.1-0.5
			c-0.1-0.1-0.2-0.1-0.3-0.1c-0.1,0-0.2,0-0.3,0.1C84.6,43.8,84.5,43.9,84.5,44.1z"/>
		<path class="st3" d="M86.4,42.9v-0.5H87v0.5H86.4z M86.4,45.2v-2H87v2H86.4z"/>
		<path class="st3" d="M88.4,43.2v0.4H88v0.8c0,0.2,0,0.3,0,0.3c0,0,0,0,0,0.1c0,0,0.1,0,0.1,0c0,0,0.1,0,0.2-0.1l0,0.4
			c-0.1,0.1-0.3,0.1-0.4,0.1c-0.1,0-0.2,0-0.3,0c-0.1,0-0.1-0.1-0.2-0.1c0-0.1-0.1-0.1-0.1-0.2c0-0.1,0-0.2,0-0.4v-0.9h-0.2v-0.4
			h0.2v-0.4l0.5-0.3v0.7H88.4z"/>
		<path class="st3" d="M89.1,43.8l-0.5-0.1c0.1-0.2,0.1-0.3,0.3-0.4c0.1-0.1,0.3-0.1,0.6-0.1c0.2,0,0.4,0,0.5,0.1
			c0.1,0.1,0.2,0.1,0.2,0.2c0,0.1,0.1,0.2,0.1,0.5l0,0.6c0,0.2,0,0.3,0,0.4c0,0.1,0,0.2,0.1,0.3h-0.5c0,0,0-0.1,0-0.2
			c0,0,0-0.1,0-0.1c-0.1,0.1-0.2,0.1-0.3,0.2c-0.1,0-0.2,0.1-0.3,0.1c-0.2,0-0.4-0.1-0.5-0.2c-0.1-0.1-0.2-0.2-0.2-0.4
			c0-0.1,0-0.2,0.1-0.3c0.1-0.1,0.1-0.2,0.2-0.2c0.1,0,0.2-0.1,0.4-0.1c0.2,0,0.4-0.1,0.5-0.1v-0.1c0-0.1,0-0.2-0.1-0.2
			c0,0-0.1-0.1-0.3-0.1c-0.1,0-0.2,0-0.2,0.1C89.2,43.6,89.2,43.7,89.1,43.8z M89.8,44.2c-0.1,0-0.2,0-0.3,0.1
			c-0.1,0-0.2,0.1-0.3,0.1c-0.1,0-0.1,0.1-0.1,0.2c0,0.1,0,0.1,0.1,0.2c0.1,0.1,0.1,0.1,0.2,0.1c0.1,0,0.2,0,0.3-0.1
			c0.1,0,0.1-0.1,0.1-0.2c0,0,0-0.1,0-0.3V44.2z"/>
		<path class="st3" d="M90.8,45.2v-2.7h0.5v2.7H90.8z"/>
		<path class="st3" d="M92.8,44.3l0.5-0.1c0,0.2,0.1,0.3,0.2,0.4c0.1,0.1,0.2,0.1,0.4,0.1c0.2,0,0.3,0,0.4-0.1
			c0.1-0.1,0.1-0.2,0.1-0.3c0-0.1,0-0.1-0.1-0.2c0,0-0.1-0.1-0.2-0.1c-0.1,0-0.2-0.1-0.4-0.1c-0.3-0.1-0.5-0.2-0.6-0.3
			c-0.2-0.1-0.2-0.3-0.2-0.5c0-0.1,0-0.3,0.1-0.4c0.1-0.1,0.2-0.2,0.3-0.3c0.1-0.1,0.3-0.1,0.5-0.1c0.3,0,0.6,0.1,0.8,0.2
			c0.2,0.1,0.3,0.3,0.3,0.6l-0.5,0c0-0.1-0.1-0.2-0.2-0.3c-0.1-0.1-0.2-0.1-0.3-0.1c-0.2,0-0.3,0-0.4,0.1c-0.1,0-0.1,0.1-0.1,0.2
			c0,0.1,0,0.1,0.1,0.2c0.1,0.1,0.2,0.1,0.5,0.2s0.5,0.1,0.6,0.2c0.1,0.1,0.2,0.2,0.3,0.3c0.1,0.1,0.1,0.3,0.1,0.4
			c0,0.2,0,0.3-0.1,0.4c-0.1,0.1-0.2,0.2-0.4,0.3c-0.2,0.1-0.4,0.1-0.6,0.1c-0.3,0-0.6-0.1-0.8-0.2C92.9,44.8,92.8,44.6,92.8,44.3z"
			/>
		<path class="st3" d="M96.7,45.2v-0.3c-0.1,0.1-0.2,0.2-0.3,0.2s-0.2,0.1-0.4,0.1c-0.1,0-0.3,0-0.4-0.1c-0.1-0.1-0.2-0.1-0.2-0.2
			c0-0.1-0.1-0.2-0.1-0.4v-1.2H96v0.9c0,0.3,0,0.4,0,0.5c0,0.1,0.1,0.1,0.1,0.1c0.1,0,0.1,0.1,0.2,0.1c0.1,0,0.2,0,0.2-0.1
			c0.1,0,0.1-0.1,0.1-0.2c0-0.1,0-0.2,0-0.5v-0.8h0.5v2H96.7z"/>
		<path class="st3" d="M99.5,43.8l-0.5,0.1c0-0.1-0.1-0.2-0.1-0.2c-0.1-0.1-0.1-0.1-0.2-0.1c-0.1,0-0.2,0-0.3,0.1
			c-0.1,0.1-0.1,0.2-0.1,0.4c0,0.2,0,0.4,0.1,0.5c0.1,0.1,0.2,0.1,0.3,0.1c0.1,0,0.2,0,0.2-0.1c0.1-0.1,0.1-0.2,0.1-0.3l0.5,0.1
			c-0.1,0.2-0.2,0.4-0.3,0.5c-0.1,0.1-0.3,0.2-0.6,0.2c-0.3,0-0.5-0.1-0.7-0.3c-0.2-0.2-0.3-0.4-0.3-0.7c0-0.3,0.1-0.6,0.3-0.8
			c0.2-0.2,0.4-0.3,0.7-0.3c0.2,0,0.4,0.1,0.6,0.2C99.3,43.4,99.4,43.6,99.5,43.8z"/>
		<path class="st3" d="M101,44.5l0.5,0.1c-0.1,0.2-0.2,0.3-0.3,0.4c-0.1,0.1-0.3,0.1-0.5,0.1c-0.3,0-0.6-0.1-0.8-0.3
			c-0.1-0.2-0.2-0.4-0.2-0.7c0-0.3,0.1-0.6,0.3-0.8c0.2-0.2,0.4-0.3,0.6-0.3c0.3,0,0.5,0.1,0.7,0.3c0.2,0.2,0.2,0.5,0.2,0.9h-1.3
			c0,0.2,0,0.3,0.1,0.4s0.2,0.1,0.3,0.1c0.1,0,0.1,0,0.2-0.1C100.9,44.7,100.9,44.6,101,44.5z M101,44c0-0.1,0-0.3-0.1-0.3
			c-0.1-0.1-0.2-0.1-0.3-0.1c-0.1,0-0.2,0-0.3,0.1c-0.1,0.1-0.1,0.2-0.1,0.3H101z"/>
		<path class="st3" d="M101.8,44.6l0.5-0.1c0,0.1,0.1,0.2,0.1,0.2c0.1,0.1,0.2,0.1,0.3,0.1c0.1,0,0.2,0,0.3-0.1c0,0,0.1-0.1,0.1-0.1
			c0,0,0-0.1,0-0.1c0,0-0.1,0-0.2-0.1c-0.4-0.1-0.7-0.2-0.8-0.3c-0.2-0.1-0.2-0.3-0.2-0.4c0-0.2,0.1-0.3,0.2-0.4
			c0.1-0.1,0.3-0.2,0.6-0.2c0.3,0,0.5,0,0.6,0.1s0.2,0.2,0.3,0.4l-0.5,0.1c0-0.1-0.1-0.1-0.1-0.2c-0.1,0-0.1-0.1-0.3-0.1
			c-0.1,0-0.2,0-0.3,0.1c0,0-0.1,0.1-0.1,0.1c0,0,0,0.1,0.1,0.1c0,0,0.2,0.1,0.5,0.1s0.5,0.1,0.6,0.2c0.1,0.1,0.2,0.2,0.2,0.4
			c0,0.2-0.1,0.3-0.2,0.5c-0.1,0.1-0.4,0.2-0.7,0.2c-0.3,0-0.5-0.1-0.6-0.2C101.9,44.9,101.8,44.8,101.8,44.6z"/>
		<path class="st3" d="M103.9,44.6l0.5-0.1c0,0.1,0.1,0.2,0.1,0.2s0.2,0.1,0.3,0.1c0.1,0,0.2,0,0.3-0.1c0,0,0.1-0.1,0.1-0.1
			c0,0,0-0.1,0-0.1c0,0-0.1,0-0.2-0.1c-0.4-0.1-0.7-0.2-0.8-0.3c-0.2-0.1-0.2-0.3-0.2-0.4c0-0.2,0.1-0.3,0.2-0.4
			c0.1-0.1,0.3-0.2,0.6-0.2c0.3,0,0.5,0,0.6,0.1c0.1,0.1,0.2,0.2,0.3,0.4l-0.5,0.1c0-0.1-0.1-0.1-0.1-0.2c-0.1,0-0.1-0.1-0.3-0.1
			c-0.1,0-0.2,0-0.3,0.1c0,0-0.1,0.1-0.1,0.1c0,0,0,0.1,0.1,0.1c0,0,0.2,0.1,0.5,0.1s0.5,0.1,0.6,0.2c0.1,0.1,0.2,0.2,0.2,0.4
			c0,0.2-0.1,0.3-0.2,0.5c-0.1,0.1-0.4,0.2-0.7,0.2c-0.3,0-0.5-0.1-0.6-0.2C104,44.9,103.9,44.8,103.9,44.6z"/>
	</g>
</g>
</svg>
