<svg width="450" height="450" viewBox="0 0 450 450" fill="none" xmlns="http://www.w3.org/2000/svg">
<mask id="mask0_993_410" style="mask-type:luminance" maskUnits="userSpaceOnUse" x="0" y="0" width="450" height="450">
<path d="M450 225C450 100.736 349.264 0 225 0C100.736 0 0 100.736 0 225C0 349.264 100.736 450 225 450C349.264 450 450 349.264 450 225Z" fill="white"/>
</mask>
<g mask="url(#mask0_993_410)">
<path d="M450 225C450 100.736 349.264 0 225 0C100.736 0 0 100.736 0 225C0 349.264 100.736 450 225 450C349.264 450 450 349.264 450 225Z" fill="#C7F664"/>
<path d="M395.225 265.245L311.635 120.639H140.77L152.496 145.565H236.42L306.609 266.483L269.923 331.361H357.534L395.225 265.245Z" fill="#00454A"/>
<path d="M188.679 189.937H42.7734L54.4995 214.863H113.465L181.141 331.36H270.594L188.679 189.937Z" fill="#00454A"/>
</g>
</svg>
