<svg width="238" height="50" viewBox="0 0 238 50" fill="none" xmlns="http://www.w3.org/2000/svg">
<g clip-path="url(#clip0_205_1023)">
<path d="M124.877 42.2461C132.568 42.2461 138.802 36.0336 138.802 28.3701C138.802 20.7066 132.568 14.4941 124.877 14.4941C117.187 14.4941 110.952 20.7066 110.952 28.3701C110.952 36.0336 117.187 42.2461 124.877 42.2461Z" fill="#00454A"/>
<path d="M-0.292969 44.2591V12.6913H11.2475C13.2992 12.6913 15.215 13.0822 16.9951 13.8638C18.7752 14.6455 20.3291 15.7429 21.6566 17.1559C23.0142 18.5388 24.0703 20.1925 24.8247 22.1166C25.609 24.0407 26.0012 26.1603 26.0012 28.4752C26.0012 30.76 25.609 32.8796 24.8247 34.8338C24.0703 36.7579 23.0142 38.4265 21.6566 39.8395C20.3291 41.2227 18.7752 42.3049 16.9951 43.0867C15.215 43.8683 13.2992 44.2591 11.2475 44.2591H-0.292969ZM1.96987 42.771L1.33627 42.0043H11.0212C12.741 42.0043 14.3552 41.6737 15.8637 41.0122C17.4024 40.3506 18.7451 39.4187 19.8916 38.2162C21.0381 36.9834 21.9432 35.5555 22.6071 33.9319C23.2707 32.2785 23.6027 30.4595 23.6027 28.4752C23.6027 26.4909 23.2707 24.6871 22.6071 23.0635C21.9432 21.4101 21.0381 19.9819 19.8916 18.7794C18.7451 17.5468 17.4024 16.5997 15.8637 15.9383C14.3552 15.2769 12.741 14.9462 11.0212 14.9462H1.20051L1.96987 14.2697V42.771ZM44.4671 44.8489C41.3898 44.8489 38.6477 44.1806 36.2409 42.8437C33.8736 41.5071 32.0193 39.6397 30.6779 37.2413C29.3363 34.8432 28.6656 32.0912 28.6656 28.9853C28.6656 26.5869 29.0405 24.4247 29.7902 22.4982C30.5399 20.5325 31.5854 18.8221 32.9268 17.3675C34.3075 15.9129 35.945 14.7924 37.8387 14.0061C39.7327 13.1805 41.7844 12.7676 43.9938 12.7676C46.0849 12.7676 47.9786 13.1411 49.6752 13.8881C51.4113 14.6351 52.8908 15.677 54.1138 17.0137C55.3764 18.3112 56.3233 19.8639 56.9546 21.6724C57.5859 23.481 57.8621 25.4666 57.783 27.6287L57.724 29.6928H31.9799L31.3289 25.9777H54.3506L53.2853 26.98V25.5647C53.2063 24.1493 52.7921 22.793 52.0424 21.4956C51.293 20.159 50.2277 19.0776 48.8467 18.2521C47.5053 17.4265 45.8875 17.0137 43.9938 17.0137C41.7844 17.0137 39.8707 17.4658 38.2532 18.3701C36.6354 19.2351 35.3927 20.5325 34.5246 22.2623C33.6565 23.9921 33.2226 26.1349 33.2226 28.6902C33.2226 31.1278 33.6962 33.251 34.643 35.0593C35.5899 36.8286 36.9315 38.2047 38.6674 39.1874C40.4427 40.1704 42.5735 40.6619 45.0591 40.6619C46.5188 40.6619 47.9589 40.426 49.3793 39.9541C50.8391 39.443 52.4369 38.4603 54.1731 37.0054L56.481 40.19C55.5738 41.0943 54.4887 41.9002 53.2263 42.608C51.9637 43.2764 50.5826 43.8267 49.0835 44.2591C47.5841 44.6522 46.0453 44.8489 44.4671 44.8489ZM72.4668 44.2591L59.3284 13.2984H65.8978L75.3667 36.4747L74.2424 37.0054L84.3624 13.2984H90.6359L76.8464 44.2591H72.4668ZM95.301 44.2591V13.1805H102.58V44.2591H95.301ZM124.393 44.7898C121.315 44.7898 118.533 44.1019 116.048 42.7257C113.562 41.3106 111.609 39.3446 110.189 36.8286C108.768 34.273 108.058 31.3245 108.058 27.9827C108.058 24.6803 108.788 21.7512 110.248 19.1956C111.708 16.6402 113.7 14.6744 116.225 13.2984C118.75 11.9224 121.571 11.2344 124.688 11.2344C127.805 11.2344 130.626 11.9224 133.151 13.2984C135.676 14.6744 137.669 16.6402 139.129 19.1956C140.589 21.7512 141.318 24.6803 141.318 27.9827C141.318 31.285 140.569 34.2141 139.069 36.7697C137.57 39.325 135.519 41.3106 132.915 42.7257C130.35 44.1019 127.509 44.7898 124.393 44.7898ZM124.393 38.9515C126.128 38.9515 127.746 38.5387 129.245 37.7132C130.784 36.8874 132.027 35.6491 132.974 33.9978C133.921 32.3468 134.394 30.3415 134.394 27.9827C134.394 25.6238 133.94 23.6384 133.033 22.0264C132.126 20.375 130.922 19.1368 129.423 18.3112C127.924 17.4855 126.306 17.0727 124.57 17.0727C122.834 17.0727 121.216 17.4855 119.717 18.3112C118.257 19.1368 117.093 20.375 116.225 22.0264C115.357 23.6384 114.923 25.6238 114.923 27.9827C114.923 31.4817 115.811 34.1945 117.586 36.121C119.401 38.008 121.67 38.9515 124.393 38.9515ZM146.244 44.2591V12.6913H150.634L170.004 38.5319L169.279 38.9376C169.159 38.1861 169.053 37.3745 168.963 36.5024C168.872 35.6005 168.782 34.6536 168.691 33.6614C168.631 32.6392 168.57 31.572 168.51 30.4595C168.48 29.3169 168.45 28.1294 168.42 26.8969C168.39 25.6643 168.374 24.3865 168.374 23.0635V12.6913H173.262V44.2591H168.782L149.729 19.3656L150.226 18.7342C150.377 20.5683 150.498 22.1315 150.589 23.4245C150.709 24.6871 150.8 25.7695 150.86 26.6714C150.951 27.5432 151.011 28.2649 151.041 28.8359C151.071 29.3771 151.086 29.8281 151.086 30.189C151.116 30.5497 151.132 30.8655 151.132 31.1359V44.2591H146.244ZM193.887 44.8489C190.81 44.8489 188.068 44.1806 185.661 42.8437C183.294 41.5071 181.439 39.6397 180.098 37.2413C178.757 34.8432 178.086 32.0912 178.086 28.9853C178.086 26.5869 178.461 24.4247 179.21 22.4982C179.96 20.5325 181.005 18.8221 182.347 17.3675C183.728 15.9129 185.365 14.7924 187.259 14.0061C189.153 13.1805 191.204 12.7676 193.414 12.7676C195.505 12.7676 197.399 13.1411 199.095 13.8881C200.831 14.6351 202.311 15.677 203.534 17.0137C204.797 18.3112 205.744 19.8639 206.375 21.6724C207.006 23.481 207.282 25.4666 207.203 27.6287L207.144 29.6928H181.4L180.749 25.9777H203.771L202.706 26.98V25.5647C202.627 24.1493 202.212 22.793 201.463 21.4956C200.713 20.159 199.648 19.0776 198.267 18.2521C196.925 17.4265 195.308 17.0137 193.414 17.0137C191.204 17.0137 189.291 17.4658 187.673 18.3701C186.056 19.2351 184.813 20.5325 183.945 22.2623C183.077 23.9921 182.643 26.1349 182.643 28.6902C182.643 31.1278 183.116 33.251 184.063 35.0593C185.01 36.8286 186.351 38.2047 188.087 39.1874C189.863 40.1704 191.993 40.6619 194.479 40.6619C195.939 40.6619 197.379 40.426 198.8 39.9541C200.259 39.443 201.857 38.4603 203.593 37.0054L205.901 40.19C204.994 41.0943 203.909 41.9002 202.646 42.608C201.384 43.2764 200.003 43.8267 198.503 44.2591C197.004 44.6522 195.466 44.8489 193.887 44.8489ZM233.191 44.2591L221.828 29.8696L221.65 29.634L208.985 13.5933H212.714L223.84 27.7467L224.018 27.9827L236.919 44.2591H233.191ZM208.512 44.2591L221.473 27.8058L223.248 29.9288L212.122 44.2591H208.512ZM224.254 29.1032L222.479 26.98L232.836 13.5933H236.446L224.254 29.1032Z" fill="#C7F664"/>
<path d="M102.017 11.0239H102.425V4.08594H94.9404C94.9404 7.95522 98.1385 11.0239 102.017 11.0239Z" fill="#C7F664"/>
<path d="M172.752 10.6769H173.017V5.82031H168.144C168.144 8.5288 170.226 10.6769 172.752 10.6769Z" fill="#C7F664"/>
</g>
<defs>
<clipPath id="clip0_205_1023">
<rect width="237.143" height="50" fill="white"/>
</clipPath>
</defs>
</svg>
